<svg width="124" height="32" viewBox="0 0 124 32" fill="none" xmlns="http://www.w3.org/2000/svg">
<path d="M50.9428 11.3172V24.7485H48.2306V18.9083H42.4636V24.7485H39.772V11.3172H42.4636V16.7583H48.2306V11.3172H50.9428Z" fill="#163B69"/>
<path d="M59.8212 14.7018C60.4576 15.1213 60.9106 15.6845 61.1764 16.3949V14.2076H63.8493V24.7469H61.1764V22.5409C60.9087 23.2514 60.4576 23.8182 59.8212 24.2434C59.1848 24.6685 58.4211 24.8811 57.5301 24.8811C56.6392 24.8811 55.8362 24.6648 55.1249 24.2341C54.4117 23.8033 53.8558 23.1787 53.4534 22.3601C53.0528 21.5415 52.8525 20.5811 52.8525 19.4791C52.8525 18.3771 53.0528 17.4149 53.4534 16.5963C53.8539 15.7777 54.4117 15.1549 55.1249 14.7223C55.838 14.2916 56.6392 14.0753 57.5301 14.0753C58.4211 14.0753 59.1848 14.2841 59.8212 14.7037V14.7018ZM56.3472 17.2322C55.838 17.7785 55.5835 18.5263 55.5835 19.4773C55.5835 20.4282 55.838 21.1741 56.3472 21.713C56.8563 22.2519 57.532 22.5223 58.3706 22.5223C59.2091 22.5223 59.8568 22.2463 60.3846 21.6944C60.9124 21.1424 61.1764 20.404 61.1764 19.4773C61.1764 18.5505 60.9124 17.7934 60.3846 17.2415C59.8568 16.6895 59.1848 16.4136 58.3706 16.4136C57.5563 16.4136 56.8544 16.6858 56.3472 17.2322Z" fill="#163B69"/>
<path d="M71.9482 22.4441V24.7451H70.535C69.3502 24.7451 68.4442 24.4598 67.8134 23.8892C67.1827 23.3186 66.8682 22.3676 66.8682 21.0362V16.4715H65.397V14.2078H66.8682V11.6009H69.5598V14.2078H71.9276V16.4715H69.5598V21.0754C69.5598 21.5826 69.6609 21.9387 69.8649 22.1401C70.0689 22.3434 70.4115 22.4441 70.8963 22.4441H71.9463H71.9482Z" fill="#163B69"/>
<path d="M81.5426 14.7223C82.3643 15.153 83.0101 15.7777 83.4799 16.5963C83.9516 17.4149 84.1874 18.3752 84.1874 19.4791C84.1874 20.583 83.9516 21.5396 83.4799 22.3507C83.0082 23.1619 82.3624 23.7865 81.5426 24.2247C80.7209 24.6629 79.7962 24.8811 78.7648 24.8811C77.7335 24.8811 76.807 24.6629 75.9871 24.2247C75.1654 23.7865 74.5196 23.1637 74.048 22.3507C73.5763 21.5396 73.3423 20.5811 73.3423 19.4791C73.3423 18.3771 73.5781 17.4149 74.048 16.5963C74.5196 15.7777 75.1654 15.1549 75.9871 14.7223C76.8088 14.2916 77.7335 14.0753 78.7648 14.0753C79.7962 14.0753 80.7227 14.2916 81.5426 14.7223ZM76.8538 17.1874C76.3315 17.7133 76.0713 18.4778 76.0713 19.4791C76.0713 20.4805 76.3315 21.245 76.8538 21.7708C77.376 22.2967 78.0124 22.5596 78.763 22.5596C79.5136 22.5596 80.15 22.2967 80.6722 21.7708C81.1944 21.245 81.4546 20.4805 81.4546 19.4791C81.4546 18.4778 81.1944 17.7133 80.6722 17.1874C80.15 16.6616 79.5136 16.3987 78.763 16.3987C78.0124 16.3987 77.376 16.6616 76.8538 17.1874Z" fill="#163B69"/>
<path d="M97.9428 11.3188V24.7502H95.2306V18.91H89.4636V24.7502H86.772V11.3188H89.4636V16.76H95.2306V11.3188H97.9428Z" fill="#547CFC"/>
<path d="M110.508 14.2123V24.7515H107.817V22.6202C107.536 23.3306 107.076 23.8844 106.432 24.2853C105.788 24.6844 105.046 24.8839 104.206 24.8839C102.984 24.8839 102.01 24.4849 101.284 23.6849C100.558 22.8868 100.195 21.7699 100.195 20.3359V14.2104H102.868V20.032C102.868 20.8692 103.085 21.52 103.517 21.9825C103.95 22.4449 104.535 22.6761 105.275 22.6761C106.052 22.6761 106.669 22.4281 107.128 21.934C107.587 21.4398 107.815 20.7294 107.815 19.8026V14.2104H110.506L110.508 14.2123Z" fill="#547CFC"/>
<path d="M121.679 14.724C122.393 15.1548 122.949 15.7795 123.351 16.5981C123.752 17.4167 123.952 18.377 123.952 19.4809C123.952 20.5848 123.752 21.5451 123.351 22.3618C122.95 23.1804 122.393 23.8051 121.679 24.2358C120.966 24.6665 120.165 24.8829 119.274 24.8829C118.383 24.8829 117.623 24.6703 116.993 24.2451C116.362 23.82 115.914 23.2531 115.647 22.5427V24.7486H112.955V10.6721H115.647V16.3985C115.914 15.6881 116.364 15.1231 116.993 14.7054C117.623 14.2877 118.383 14.077 119.274 14.077C120.165 14.077 120.966 14.2933 121.679 14.724ZM116.418 17.2451C115.89 17.7971 115.626 18.5411 115.626 19.4809C115.626 20.4207 115.89 21.146 116.418 21.698C116.946 22.2499 117.618 22.5259 118.432 22.5259C119.246 22.5259 119.946 22.2574 120.455 21.7166C120.964 21.1777 121.219 20.4318 121.219 19.4809C121.219 18.5299 120.964 17.7821 120.455 17.2358C119.946 16.6913 119.27 16.4172 118.432 16.4172C117.593 16.4172 116.946 16.6932 116.418 17.2451Z" fill="#547CFC"/>
<path d="M30.6574 6.35576L36.1492 11.1666C36.2522 11.258 36.1885 11.4277 36.05 11.4277H31.0187C30.8483 11.4277 30.7098 11.2934 30.7042 11.1256L30.5807 7.89412C30.5769 7.77292 30.3991 7.76546 30.3841 7.88667L28.1717 26.9624C28.1305 27.3111 27.8741 27.5964 27.5297 27.6729L8.27836 31.9952C8.10054 32.0344 7.97513 31.8255 8.09679 31.6894L15.8591 22.8955C15.992 22.7445 16.2054 22.6941 16.3907 22.7706L24.6434 26.0879C24.7594 26.1345 24.8362 25.9667 24.7257 25.9089L16.8848 21.8718C16.8025 21.8289 16.7276 21.773 16.664 21.7059L0.100529 4.13864C-0.0379828 3.9932 0.121119 3.76198 0.308297 3.83657L24.0407 13.38C24.138 13.4192 24.2484 13.3931 24.3158 13.3148L30.4478 6.36881C30.5021 6.30728 30.5975 6.30168 30.6593 6.35576H30.6574Z" fill="url(#paint0_linear_1209_1822)"/>
<path d="M23.803 12.5719L18.1259 0.110158C18.0417 -0.0725817 17.7684 -0.0147765 17.7665 0.18661L17.731 9.24898C17.731 9.41867 17.8208 9.57717 17.9705 9.66108L23.5335 12.818C23.6963 12.9094 23.8816 12.7415 23.8049 12.5719H23.803Z" fill="url(#paint1_linear_1209_1822)"/>
<defs>
<linearGradient id="paint0_linear_1209_1822" x1="29.3996" y1="27.9861" x2="3.31782" y2="4.74883" gradientUnits="userSpaceOnUse">
<stop stop-color="#2A4FC3"/>
<stop offset="0.19" stop-color="#2D54C4"/>
<stop offset="0.43" stop-color="#3864C9"/>
<stop offset="0.7" stop-color="#4A7FD1"/>
<stop offset="0.99" stop-color="#63A5DC"/>
</linearGradient>
<linearGradient id="paint1_linear_1209_1822" x1="35.9116" y1="20.6776" x2="9.82986" y2="-2.56152" gradientUnits="userSpaceOnUse">
<stop stop-color="#2A4FC3"/>
<stop offset="0.19" stop-color="#2D54C4"/>
<stop offset="0.43" stop-color="#3864C9"/>
<stop offset="0.7" stop-color="#4A7FD1"/>
<stop offset="0.99" stop-color="#63A5DC"/>
</linearGradient>
</defs>
</svg>
